<?xml version="1.0" encoding="iso-8859-1"?>
<!-- Generator: Adobe Illustrator 19.0.0, SVG Export Plug-In . SVG Version: 6.00 Build 0)  -->
<svg xmlns="http://www.w3.org/2000/svg" xmlns:xlink="http://www.w3.org/1999/xlink" version="1.1" id="Capa_1" x="0px" y="0px" viewBox="0 0 120 120" style="enable-background:new 0 0 120 120;" xml:space="preserve" width="512px" height="512px">
<g id="_x30_406-tentacle">
	<g>
		<path style="fill-rule:evenodd;clip-rule:evenodd;" d="M119.566,74.647c-0.679-1.157-1.193-2.479-2.294-3.213    c-0.782-1.13-1.973-1.853-2.754-2.982c-1.979-1.769-3.97-3.527-6.884-4.36c-0.159-0.453-1.28,0.057-1.376-0.459    c-4.815-0.226-8.483,0.696-12.621,1.148h-9.408c-3.122-0.473-5.828-1.362-8.261-2.524c-1.31-1.215-2.935-2.113-3.901-3.671    c-1.323-1.277-2.097-3.104-2.753-5.049c0.008-2.914,0.089-6.769-0.229-8.948c-0.054-0.369,0.011-0.775,0-1.147    c-0.066-2.146-0.14-4.918-0.46-6.196c-0.036-0.144,0.024-0.312,0-0.459c-0.21-1.25-0.637-2.989-0.688-3.9    c-0.042-0.737-0.427-1.036-0.459-1.606c-0.015-0.267-0.191-0.334-0.229-0.459c-0.654-2.13-1.28-4.222-2.295-5.967    c-1.107-1.646-1.992-3.514-3.442-4.818c-1.097-1.656-2.474-3.033-4.13-4.13c-2.84-2.744-6.191-4.977-10.555-6.196    c-0.479-0.451-1.524-0.175-2.065,0c-0.912,0.071-1.153-0.53-2.065-0.458c-1.347-0.413-3.121-0.397-4.59-0.689h-6.424    c-0.294,0.014-0.318,0.294-0.689,0.23c-0.998-0.003-2.064-0.075-2.753,0.23c-0.403,0.131-1.348-0.277-1.376,0.23    c-0.403,0.132-1.349-0.278-1.377,0.228c-1.79,0.276-3.513,0.617-4.819,1.378c-3.398,0.808-5.656,2.758-8.49,4.13    c-0.682,0.848-1.628,1.433-2.524,2.064c-0.467,1.142-1.977,1.235-2.294,2.524c-1.747,1.39-3.188,3.086-4.36,5.049    c-0.477,1.512-0.995,2.983-1.147,4.818c-0.654,1.335-1.138,2.84-1.377,4.59c-0.851,3.976-0.421,9.243,0.229,13.079    c0.541,0.604,0.308,1.987,0.918,2.523c0.003,1.221,0.732,1.716,0.918,2.754c0.727,1.644,1.772,2.969,2.523,4.59    c0.953,0.73,1.464,1.901,2.295,2.754c1.054,0.704,1.699,1.818,2.753,2.524c0.541,1.141,1.261,2.104,2.524,2.524    c0.947,0.812,1.955,1.563,3.442,1.836c2.08-0.062,3.934-0.35,5.048-1.377c0.821-1.874,0.605-5.296-0.689-6.425    c-0.537-0.841-1.235-1.519-1.835-2.295c-0.94-0.438-1.402-1.353-1.836-2.294c-1.515-2.604-2.287-6.695-1.606-10.785    c0.432-0.705,0.774-1.417,1.147-2.066c0.214-0.374,0.242-0.841,0.459-1.147c0.282-0.398,0.947-0.822,1.147-1.147    c0.159-0.259,0.254-0.266,0.459-0.459c1.904-1.798,4.228-2.607,8.031-2.295c0.194,0.495,1.183,0.194,1.376,0.689    c0.823-0.06,0.841,0.688,1.606,0.688c0.766,0.688,1.485,1.422,2.295,2.065c1.285,1.621,2.446,3.367,3.212,5.507    c0.045,5.385,0.594,10.268,0.688,15.604c1.214,7.045,2.593,13.927,4.819,19.963c-0.089,1.671-0.693,2.825-0.459,4.819    c0.644,1.114,0.248,3.271,1.147,4.13c0.757,0.391,1.394,0.9,2.294,1.146c0.864,0.36,2.423,0.024,3.213,0.46    c3.949,4.388,7.805,8.869,13.538,11.474c0.226,0.31,0.613,0.458,0.918,0.688c0.077,0.535,0.235,0.989,0.688,1.147    c0.552,0.672,1.326,1.122,2.294,1.377c1.628,0.646,3.556,0.394,5.278,0c0.232,0.38,0.975,0.249,1.377,0.459    c0.539,0.073,0.861,0.362,1.606,0.229c0.232,0.38,0.974,0.248,1.377,0.459c0.739-0.051,0.971,0.406,1.836,0.229    c2.005,0.519,4.314,0.733,6.884,0.688c1.115,0.49,2.078,1.134,3.212,1.605c0.251,0.516,1.126,0.403,1.377,0.919    c0.621,0.22,1.312,0.37,1.836,0.688c4.289,0.388,7.075-0.727,10.097-1.607c2.829-1.837,5.463-3.869,7.802-6.195    c2.663-2.08,4.906-4.578,7.114-7.113C117.732,91.384,121.254,83.803,119.566,74.647z M15.848,60.19    c0.421,0.267,0.777,0.6,1.147,0.918c0.61,0.002,0.585,0.639,0.918,0.918c-0.231,1.043-1.568,0.54-2.065,0    c-0.752-0.396-1.084-1.21-1.835-1.607c-0.951-1.267-2.257-2.179-3.213-3.441c0.278-0.945,1.042-1.406,1.147-2.524    c0.267-0.037,0.409,0.05,0.459,0.229C13.273,56.799,14.645,58.411,15.848,60.19z M17.225,34.032    c-0.209,0.938-0.703,1.591-1.606,1.836c-3.194,0.283-2.266-4.995,0.229-4.819c0.539,0.226,0.544,0.986,0.918,1.376    C16.958,32.921,17.36,33.208,17.225,34.032z M30.075,30.589c-0.38-0.768-0.812-1.483-0.688-2.754    c0.592-1.086,2.333-1.591,3.442-0.918c0.564,0.343,1.062,1.771,0.918,2.983C32.825,30.764,31.338,31.251,30.075,30.589z     M38.795,64.321c-0.488-0.354-0.855-0.828-1.377-1.147c0.019-0.326,0.038-0.65-0.229-0.688c-0.149-1.525,0.377-2.376,0.689-3.441    c0.742-0.253,1.369-0.62,2.065-0.919c2.061-0.148,3.239,0.587,4.131,1.607c0.336,2.248-1.015,2.81-1.607,4.13    C41.484,64.256,40.275,64.424,38.795,64.321z M40.171,48.717c-0.769,0.157-0.839-0.385-0.917-0.918    C39.838,47.827,40.144,48.133,40.171,48.717z M39.942,44.587c0.17-1.056,0.679-1.77,1.377-2.296    c1.15-0.104,3.158-0.641,3.901,0.23c0.219,1.442-0.346,2.102-0.918,2.753c-1.009,0.139-0.838,1.457-2.065,1.377    C40.794,46.641,40.428,45.553,39.942,44.587z M49.58,83.826c0.001,1.301-1.188,1.413-1.147,2.753    c-0.405,0.208-0.71,0.513-0.918,0.918c-0.272,0.34-0.867,0.357-1.148,0.688c-2.182,0.116-3.444-0.687-4.13-2.065    c-0.14-2.281,0.884-3.399,1.836-4.589c1.755-0.115,3.989-1.444,5.277,0C49.588,82.134,49.625,82.939,49.58,83.826z     M68.625,101.723c-0.283,0.864-0.884,1.411-1.377,2.065c-0.739-0.05-0.971,0.405-1.836,0.229    c-1.332-0.197-1.762-1.297-2.294-2.295c-0.203-3.797,1.059-6.131,4.819-5.966c0.725,0.651,1.033,1.72,1.148,2.983    C69.279,100.083,68.357,100.308,68.625,101.723z M87.441,89.562c-0.914-0.081-0.614-1.375-1.147-1.835    c-0.443-0.936-1.274-1.481-1.836-2.295c-0.74-0.179-1.355-0.48-1.835-0.918c-1.387,0.066-3.09-0.185-4.13,0.229    c-2.562,1.109-3.823,3.519-3.442,7.572c0.344,2.256,1.376,3.825,2.983,4.818c2.048,0.483,3.459-0.483,5.507,0    c0.997,0.079,1.28-0.556,2.065-0.688c-0.183,2.679-0.122,4.402,0,7.113c-0.724,0.112-0.81-0.413-1.606-0.229    c-0.056-1.856,0.237-4.062-1.377-4.359c-1.677,0.082-0.789,2.73-1.377,3.901c-0.745,0.132-1.067-0.157-1.606-0.23    c0.114-0.805,0.342-1.493,0.23-2.523c0.146-1.064-0.416-1.42-0.918-1.837c-0.571-0.034-0.711,0.361-1.147,0.46    c-0.396,0.139,0.018,1.089-0.459,1.147c-0.033,0.301,0.043,0.618,0,0.918c-0.044,0.312-0.191,0.316-0.229,0.458    c-0.084,0.314,0.246,1.133-0.459,0.918c-0.25-2.021,1.19-5.01-1.147-5.277c-1.139,0.009-0.778,1.517-1.147,2.295    c-0.253,0.894,0.174,2.469-1.147,2.294c-0.914,0.149-0.657-0.872-0.688-1.605v-2.295c-0.246-1.208-0.604-2.302-1.147-3.212    c-0.318-0.678-1.06-0.93-1.376-1.607c-0.611-0.154-1.169-0.361-1.607-0.688H66.56c-0.902,0.169-1.663,0.478-2.524,0.688    c-0.629,0.364-1.06,0.93-1.835,1.147c-0.323,0.595-0.777,1.06-1.147,1.606c-0.569,0.273-0.276,1.406-1.376,1.148    c-1.437-1.578,2.169-4.613,0-6.195c-1.255-0.107-1.21,1.085-1.836,1.606c0.11,0.722-0.327,0.896-0.459,1.377    c-0.097,0.438-0.083,0.986-0.688,0.918c-1.042-0.996,0.241-2.531,0.688-3.443c0.191-1.088,1.188-3.405-0.459-3.671    c-2.056,0.238-1.726,2.862-2.753,4.131c-0.652-0.307,0.177-1.021,0.229-1.377c0.076-0.536,0.276-0.948,0.458-1.377    c0.312-0.89,0.914-2.004,0.459-2.982c-1.302-0.08-1.105,1.342-1.835,1.835c-0.41,0.813-0.353,2.095-1.606,2.065    c-0.086-0.71-0.781-0.892,0-1.377c0.246-0.52,0.52-1.009,0.918-1.377c0.056-0.708,0.232-1.297,0.459-1.836    c0-0.841,0-1.683,0-2.523c-0.46-2.366-1.365-3.896-3.672-4.819c-0.954-0.382-3.187-0.296-5.048,0    c-0.25-2.161,1.549-2.275,1.836-3.9c-0.177-0.665-0.567-1.115-1.606-0.918c-0.591-0.037-1.103,1.167-1.377,0.688    c-1.201-1.723,1.002-2.617,1.147-4.359c-0.043-0.186-0.23-0.229-0.229-0.459c-0.032-0.656-0.957-0.419-1.606-0.459    c-0.342,0.531-0.648,0.438-0.918,0c-0.302-1.204,0.385-0.886,0.918-1.146c0.421-0.208,1.033-0.354,1.377-0.459    c0.933-0.291,1.33-1.117,2.294-1.377c0.609-1.073,1.461-1.905,1.606-3.441c-0.036-1.649-0.469-2.897-1.147-3.901    c-0.439-0.632-0.975-1.168-1.607-1.606c-0.55-0.521-1.429-0.713-2.065-1.147c-0.719-0.047-1.685,0.154-2.065-0.229    c-0.18,0.527-1.42,0.224-1.147-0.459c1.599-0.161,3.994,0.476,4.589-0.688c-0.122-1.102-1.489-0.959-1.606-2.065    c-0.442-0.421,0.195-0.776,0.459-1.147c0.06-0.671-0.519-0.705-0.459-1.376c0.648-0.192,1.416-0.268,2.065-0.459    c0.904-0.396,1.5-1.101,2.295-1.606c0.026-0.587,0.421-0.803,0.689-1.147c-0.02-0.326-0.039-0.65,0.229-0.688    c0.373-4.044-1.158-6.185-4.589-6.425c-1.113-0.041-1.839,0.303-2.753,0.459c-0.575,0.19-0.902,0.629-1.606,0.688    c-0.296,0.395-0.475,0.903-1.148,0.918c-1.379-2.674-3.024-5.082-5.507-6.654c0.126-0.715,1.331-0.352,1.836-0.688    c1.17-0.59,1.941-1.576,2.524-2.754c1.388-5.988-6.356-9.149-8.949-5.049c-0.324,1.295,0.074,1.898,0,3.442    c0.27,1.184,1.071,1.836,1.377,2.983c-1.201-0.101-2.012-0.588-3.212-0.688c-0.088-1.824,0.076-3.901-1.147-4.59    c-2.314-0.173-0.683,3.601-1.836,4.59c-1.216,0.068-0.493-1.803-0.688-2.754c-0.023-1.048,0.229-2.372-0.689-2.523    c-1.971,0.476-0.822,4.072-1.606,5.736c-0.863,0.021-0.533-1.15-1.147-1.377c-0.15-0.614-0.657-0.872-0.918-1.377    c-0.888-0.489-2.229-0.524-3.671-0.459c-1.614,0.51-2.868,2.316-2.753,4.36c0.083,1.51,0.888,2.661,2.064,3.212    c-1.324,2.118-2.725,4.159-3.212,7.114c-0.237,3.908,0.436,6.906,1.147,9.867c-1.209-0.798-2.015,0.51-2.524,1.146    c-0.782,0.17-0.378-0.846-0.918-0.918c-0.269-0.343-0.285-0.938-0.688-1.147c0.121-1.097,1.452-1.97,0.688-3.212    c-0.562-0.933-1.123,0.06-2.065,0c0.046-2.479,2.267-2.782,2.295-5.278c0.07-0.528-0.663-0.255-0.688-0.689    c-1.612-0.234-1.576,1.178-2.754,1.378c-0.165-0.626,0.886-0.995,0.919-1.607c0.014-0.266,0.746-1.248,1.147-1.605    c0.409-1.351,1.749-1.771,2.066-3.213c-0.175-0.591-0.558-0.973-1.148-1.146c-1.675,0.084-2.211,1.307-2.983,2.294    c-0.572-0.296,0.068-1.288,0.459-1.377c0.283-0.482,0.636-0.895,0.918-1.377c0.667-0.862,1.699-1.36,1.606-2.982    c-0.594-1.258-1.811-0.266-2.753,0c1.149-4.435,3.46-7.706,5.278-11.474c2.606-2.059,5.28-4.052,8.261-5.737    c3.226-1.362,6.658-2.521,10.785-2.982c2.713-0.193,5.513-0.299,8.49-0.229c4.035,0.477,8.004,1.021,11.244,2.294    c1.113,1.105,2.539,1.897,3.671,2.983c1.283,0.936,2.159,2.276,3.442,3.212c4.376,4.573,6.814,11.084,7.572,19.274v10.098    c-0.189,0.649,0.324,0.595,0.23,1.148v4.13c0.333,2.496,0.717,4.942,1.835,6.654c1.324,1.659,3.125,2.841,5.278,3.672    c0.852,0.677,1.901,1.158,2.753,1.836c1.099,0.354,2.308,0.599,3.212,1.146c0.566-0.03,1.105-0.035,1.377,0.229h2.754    c0.439,0.783,1.071,1.376,1.147,2.524c0.65-0.038-0.191,1.414,0.459,1.377c-0.039,0.574,0.353,0.718,0.688,0.918h1.147    c1.589-0.8,0.459-3.06,0.23-4.59c3.679-0.696,0.716,5.25,3.671,5.277c2.363-0.18,0.977-3.38,0.918-5.048    c0.363-0.02,0.875,0.11,0.918-0.229c2.087,0.438,0.186,4.862,2.524,5.049c2.303-0.211,1.059-3.4,0.918-5.049    c0.865,0.177,1.097-0.28,1.835-0.229c0.579,0.875,0.55,2.357,1.836,2.524c1.642,0.029,1.396-1.688,1.147-2.982    c3.117-0.124,7.227-1.931,9.638,0c-0.95,0.809-2.97,0.548-3.901,1.376c-1.439,0.243-2.598,0.768-3.442,1.606    c-2.431,1.011-4.169,2.714-5.966,4.359C91.819,80.172,89.026,84.262,87.441,89.562z M81.705,95.069    c-1.468,0.168-2.018-0.583-3.212-0.688c-0.951-1.127-1.573-3.39-0.688-5.049c1.125-0.795,2.81-1.53,4.131-0.918    c0.065,0.03,1.019,0.923,1.147,1.147c0.271,0.476,0.271,1.541,0.459,2.064c-0.066,0.853-0.259,1.577-0.918,1.837    C82.721,94.403,82.137,94.661,81.705,95.069z M116.125,82.449c-0.122,3.181-1.351,5.445-2.524,7.802    c-1.104,2.337-2.462,4.422-4.13,6.195c-0.717,1.043-1.518,2.002-2.524,2.754c-1.022,0.66-1.426,1.939-2.524,2.523    c-1.86,1.507-3.521,3.21-5.736,4.36c-3.52,0.153-6.518-0.213-8.491-1.606c-0.549-0.752-0.272-2.328-0.688-3.213    c0.139-2.613,0.535-4.971,0.917-7.343c0.402-0.439,0.487-1.196,0.689-1.835c0.286-0.556,0.568-1.115,0.688-1.836    c0.653-0.952,0.919-2.294,1.606-3.213c1.062-2.15,2.274-4.15,3.9-5.736c3.097-3.404,6.645-6.359,12.391-7.113    c0.371,0.064,0.395-0.218,0.689-0.229c1.207-0.06,2.138,0.157,2.983,0.458c0.837,0.999,1.79,1.882,1.835,3.673    C115.487,79.568,116.229,80.584,116.125,82.449z M55.316,32.884H53.94c-0.055,0.327-0.378,0.387-0.459,0.688    c-0.569,0.655-1.048,1.399-1.376,2.295c-0.691,0.608-1.305,1.296-1.148,2.753c0.469,0.373,0.938,0.745,1.606,0.918    C54.507,38.46,55.929,35.769,55.316,32.884z M55.316,44.587c1.283,0.48,2.159-0.92,2.754-1.836c0.296-1.171,1.209-2.8,0.229-3.901    h-1.377C56.003,40.328,54.008,42.674,55.316,44.587z M57.381,45.963c-0.832,1.539-2.163,2.58-2.066,5.049    c0.331,0.128,0.561,0.357,0.689,0.688c1.678,0.226,2.368-0.537,2.753-1.605c0.567-0.963,1.071-1.989,0.918-3.672    C59.046,45.841,58.411,45.618,57.381,45.963z M61.741,73.04c0.332-0.356,0.306-1.071,0.688-1.377    c0.398-3.84-0.949-5.935-2.983-7.343c-1.077-0.301-2.518-0.236-3.901-0.23c-0.14,0.013-0.272,0.034-0.23,0.23    c-1.924,0.218-2.703,1.58-3.671,2.754c-0.46,1.947-0.303,4.758,0.459,6.195c1.471,1.436,3.776,2.037,6.654,2.064    c0.043-0.34,0.555-0.21,0.918-0.229c0.485-0.279,0.666-0.863,1.376-0.918C61.187,73.709,61.535,73.446,61.741,73.04z     M57.152,73.04c-1.327,0.179-1.962-0.333-3.212-0.229c-0.607-0.77-1.247-1.507-1.147-2.983c0.434-2.37,3.875-3.188,5.736-1.606    C59.233,70.188,58.482,72.375,57.152,73.04z M111.077,76.253h-1.836c-5.786,2.169-8.424,7.485-13.08,10.784    c-0.054,0.864-0.864,0.972-0.918,1.836c-0.578,0.416-0.569,1.42-1.147,1.835c-0.409,1.504-1.382,2.442-1.606,4.131    c-0.134,1.587,0.769,2.139,0.459,3.901c0.277,1.252,0.847,2.212,1.606,2.982c4.276,0.529,5.526-1.969,7.802-3.442    c1.574-2.173,3.361-4.133,4.36-6.883c1.453-1.226,2.88-2.475,4.13-3.901c0.634-1.661,1.434-3.155,2.065-4.818    C113.612,80.011,112.884,77.139,111.077,76.253z M110.388,82.678c-0.965,3.088-3.369,4.739-5.507,6.654    c0.01,0.393-0.171,0.594-0.459,0.688c-0.704,1.667-1.83,2.913-2.524,4.589c-1.054,0.705-1.7,1.819-2.754,2.524    c-0.928,0.755-1.532,1.833-3.213,1.836c-0.736-2.281,0.204-4.626,0.23-6.884c0.639-1.273,1.414-2.411,2.065-3.672    c3.889-2.613,6.181-6.822,10.555-8.949c0.168-0.214,0.418-0.348,0.689-0.459h0.229c0.917-0.075,0.485,1.198,0.919,1.606    C110.688,81.449,110.581,82.106,110.388,82.678z M67.707,77.859h-3.212c-0.14,0.014-0.271,0.035-0.229,0.23    c-0.959-0.194-1.084,0.445-1.836,0.458c-0.314,0.526-0.945,0.737-1.377,1.147c-0.427,1.103-0.881,2.179-0.688,3.901    c0.525,0.774,0.677,1.923,1.606,2.294c0.752,0.55,1.058,1.542,1.836,2.065c1.015,0.056,1.672,0.471,2.754,0.459    c2.997-0.369,4.611-2.12,5.048-5.049c-0.217-1.924-0.863-3.42-1.835-4.589C68.983,78.572,68.342,78.219,67.707,77.859z     M67.937,84.514c-0.488,0.659-0.994,1.301-1.606,1.835h-2.065c-0.611-0.46-1.146-0.996-1.606-1.605    c-0.134-1.512,0.097-2.657,0.689-3.442c0.496-0.192,0.783-0.594,1.606-0.459c0.007-0.223,0.281-0.178,0.459-0.229    c0.895-0.054,1.19,0.493,1.836,0.688C67.778,82.071,68.091,83.059,67.937,84.514z" fill="#FFFFFF"/>
	</g>
</g>
<g>
</g>
<g>
</g>
<g>
</g>
<g>
</g>
<g>
</g>
<g>
</g>
<g>
</g>
<g>
</g>
<g>
</g>
<g>
</g>
<g>
</g>
<g>
</g>
<g>
</g>
<g>
</g>
<g>
</g>
</svg>
